<svg xmlns="http://www.w3.org/2000/svg" viewBox="0 0 1000 1000"><defs><style>.cls-1{fill:#a093ff;}.cls-2{fill:#967fcc;}.cls-3{fill:#c6bef4;}.cls-4{fill:#8f88ed;}.cls-5{fill:#6e57b5;}.cls-6{fill:#309;}.cls-7{fill:#e0ca9d;}.cls-8{fill:#bca67e;}.cls-9{fill:#e8d5b3;}.cls-10{fill:#8d79cc;stroke:#6e57b5;}.cls-10,.cls-13,.cls-14{stroke-miterlimit:10;}.cls-10,.cls-13{stroke-width:4px;}.cls-11{fill:#dadaea;}.cls-12{fill:#cccce2;}.cls-13{fill:#5d5ded;stroke:#309;}.cls-14,.cls-18{fill:none;stroke-linecap:round;}.cls-14{stroke:#fff;stroke-width:8px;}.cls-15{fill:#fff;}.cls-16{fill:#150949;}.cls-17{fill:#46228c;}.cls-18{stroke:#46228c;stroke-linejoin:round;stroke-width:10px;}</style></defs><title>Осьминог rdflhfn</title><g id="Экспорт"><path id="Тело" class="cls-1" d="M655.87,572.38c4.94-28.44,10.34-47.08,37.09-92.74,0,0,27.68-47.23,58.12-108.81C781.7,308.88,797,277.9,800.54,237.28c7.42-35.86,6.56-75.55-24.73-122.42-37.09-45.75-93-66.64-128.6-75.43-47.11-11.64-85.27-7.81-113.76-4.94C509.31,36.91,465.88,41.66,416,65.4c-27.27,13-58.48,27.82-84.09,61.83a173.84,173.84,0,0,0-29.67,61.83c-5.19,21.24-4.77,38.21-4.2,55.78,1,31.48,6.46,55.3,10.38,71.58,16.78,69.7,27.74,103.72,42,152.09,11.31,38.28,20.87,61.63,14.84,85.33-3.82,15-8.71,29.42-24.73,29.67-11.93.19-34.48-12.33-63.07-45.75-30.75-35.95-46.13-53.93-53.17-66.77-10.16-18.56-26.36-48.12-27.2-89-.39-18.92-1.17-57,23.49-82.85,11.81-12.38,14.37-17.84,50.7-28.44,29.68-8.66,65.24-30.19,61.83-43.28-2.9-11.11-35.86-24.73-63.06-16.08-44.14,14.05-76,36.33-90.27,50.7-7.13,7.16-39,40.19-54.41,95.22-3,10.71-15.87,59.63-1.24,118.7,6.79,27.39,19.36,50,44.52,95.22,21.85,39.28,35.46,57.07,47,76.66,15.25,25.92,35.86,54.41,35.86,54.41a349.24,349.24,0,0,0-39.57,21c-22.11,14-39.35,26.2-70.48,56.88-20.87,20.57-32.88,36.39-56.89,68-14.41,19-22.3,30.88-26,48.23-2.2,10.38-9.57,32.5,3.71,44.51,15.77,14.29,50.43,22,71.72,16.08,34.66-9.6,51.88-43.7,71.72-79.14,12.58-22.49,33.4-48.4,56.88-65.54,4.35-3.17,1.23,47,1.23,47-21,26-26.44,66.15-38.33,116.24-10.56,44.48-5.53,50.22-17.31,73-4.92,9.48-21,39.53-54.41,58.12-35.05,19.5-51.93,18.55-103.87,26-19.78,4.94-53.23,21.17-50.7,33.39,2.48,17.31,33.32,10.48,50.7,11.12,32.15-1.23,31.44-4.37,66.77-4.94,18.55,4.94,60,.19,74.2-4.95a165.91,165.91,0,0,0,18.29-8.09s2.17-1.14,4.29-2.35c21.36-12.2,41.72-35.31,41.72-35.31,35.76-40.6,51.17-62.13,59.35-75.43,19.79-24.73,50.7-86.56,50.7-86.56,24.94-53.93,22.55-52.88,26-51.93,5.06,1.39,2.05,9.44,3.71,45.75,1.84,40.51,10.06,44.1,14.84,89,4.64,43.7,7.06,66.45-6.19,90.27-1.86,3.34-21.33,37.18-56.88,44.51-29.23,6-47-3.71-75.43-6.18-27.2,0-52.51,3.91-51.93,14.84-5,16.08,32.59,30.51,49.46,34.62,21.2,5.18,57.67,13.64,105.11,3.71,21.54-4.51,64.69-13.53,101.39-50.7,12.36-12.51,33.6-37.95,43.28-74.19,14-52.47,6.18-91.5,6.18-91.5-3.07-15.31-3.71-24.73,1.24-37.1,5.25-5.63,18.55-6.18,18.55-6.18,6.18,17.31-8.32,35-6.18,96.45,1.23,35.57,15.66,52.36,26,64.3,27.21,19.78,65.35,21,91.51,18.55,39-3.6,36.78-13.55,74.19-18.55,55.77-7.46,73.13,13,118.71-1.24,28.44-4.94,46.85-18.73,45.75-30.91-6.18-13.6-27.2-13.6-82.85-19.79-49.46-13.6-75.43-22.25-92.74-21-30.91,2.48-50,11.65-59.35,4.95-10.88-7.79,4.69-28.2,17.31-81.61,23.49-76.67,21.34-101.76,32.15-102.64,10.54-.85,7.21,21.41,38.33,69.25,13,20,38.91,59.81,85.32,79.14,17.61,7.33,45.37,8.29,100.16,9.89,69.25,6.18,100.16,6.18,102.64-6.18,3.09-11.1-27.52-30.18-63.07-37.1-28.44-1.23-45.75-4.94-70.48-11.13-45.75-23.49-67.69-56.82-69.25-59.35-18.91-30.76-12.49-36-28.44-103.87-9.67-41.18-15.83-67.41-34.62-96.45-21.44-33.13-43.28-43.28-84.09-86.56C655.87,603.3,654.63,588.46,655.87,572.38Z"/><path class="cls-2" d="M260.17,813.51c-18.54,7.42-58.11,56.88-51.93,68,2.45,1.73,32.15-3.71,55.64-26C267.59,838.24,265.12,822.17,260.17,813.51Z"/><path class="cls-3" d="M283.67,208.84c-126.13,80.38-178.06,186.72-91.51,396.93-14.84,7.74-95.87-141.27-70.48-236.18C147.48,273.13,221.84,218.73,283.67,208.84Z"/><path class="cls-3" d="M244.1,708.4c0,9.9-154.57,147.15-184.25,228.76-14.65-2.54-5.55-4.73-9.89-16.07C60.83,847.43,206.7,713.28,244.1,708.4Z"/><path class="cls-3" d="M255.23,877.81c30.91,103.87,4.94,260.91-197.85,272-20.45,1.56-36.28,8.71-53.17,12.37-1.24-11.13,26-24.74,48.22-33.39,61.83-3.71,85.26-9.5,121.19-35.86,22.36-16.41,31-39.38,48.22-85.32C231.68,981.43,238.89,872.89,255.23,877.81Z"/><path class="cls-3" d="M398.67,954.48c59.35,103.87,47,218.86-28.44,212.68,49.46-29.68,43.27-58.12,40.8-119.94C407.32,1003.94,397.43,970.55,398.67,954.48Z"/><path class="cls-3" d="M919.25,985.39c20.68,9.1,96.65,26.28,101.4,23.49,1.66-3.76-3-7.82-23.5-16.07C966.24,989.1,920.29,980.83,919.25,985.39Z"/><path class="cls-3" d="M603.93,32c-278.22,37.1-335.1,162-206.5,511.93,7.15,18-2.27,75.82-56.88,39.57,16.07-6.18,15.81-14.51,24.73-29.67,5-64.3-69.25-225-64.3-277-1.24-14.84,3.71-17.31,17.31-27.2,13.6-13.61,14.37-27.12,12.37-30.92-4.36-8.26-20.39-2.69-27.21-12.36-5.1-7.23-1.47-17.91,0-22.26,16.08-71.72,95.22-110,95.22-110C410.85,66.76,493.88,29.54,603.93,32Z"/><path class="cls-3" d="M731.3,910c6.81,5.89,85,79.83,100.16,106.34-3,3.14-39.31-17.34-60.23-40.53C747.43,949.4,727.61,912.6,731.3,910Z"/><path class="cls-3" d="M467.91,416.58,451.84,445l72.95-1.24C481.51,426.47,470.39,430.18,467.91,416.58Z"/><path class="cls-4" d="M688.47,490.23c-2.89-14.51-36-30.06-67,35.59C607.28,560.69,619,602,634.15,629c16.7,29.81,55.57,41.68,78.6,20.17-13.87-17.8-47.39-32-56.64-73.55C661.89,530.57,683.85,515.14,688.47,490.23Z"/><path class="cls-4" d="M78.4,942.11c49.46,1.24,102.63-48.22,127.37-68-12.37,27.2-37.1,66.77-68,77.9C114.41,957.27,81.21,953.93,78.4,942.11Z"/><path class="cls-4" d="M216.31,474.61c1.74,48.22,15.14,125.46,71.78,150.67,9.16-9.57,18.89-22,33.43-25.84C271.34,571.63,236.74,511.74,216.31,474.61Z"/><path class="cls-4" d="M636.08,827.11c19.79-4.94,32.15-8.65,39.57-19.78,24.73,19.78,2.48,141-26,173.11C650.92,926,659.58,871.63,636.08,827.11Z"/><path class="cls-4" d="M335.89,928c16,4.49,26.21,6.89,35.46,2.55,10.88,22.48-47.69,92.57-79.47,102.4C311.87,998.08,337.2,966.09,335.89,928Z"/><path class="cls-4" d="M548.29,828.35c13.6,1.24,18.55-2.47,38.12,19.77C585,896.64,556.94,957,493.88,929.75,549.52,906.25,547.05,879.05,548.29,828.35Z"/><path class="cls-4" d="M716.12,762.26c16.57-11.49,26.73-19.13,30-30.14,28.92,4.4,46.8,100.94,30.89,135.57C761,827.85,751.71,785.05,716.12,762.26Z"/><path class="cls-4" d="M388.77,787.54c-10.23-3.19-24.61-2.52-29.67,5,11.13,37.1,60.1,116.24,87.79,105.11,13.38-5.39,16.86-35.58,13.6-37.1-2.1-1-5.6,10.59-12.36,11.13C427.11,863,409.8,824.64,388.77,787.54Z"/><path class="cls-5" d="M585.38,798.67c56.89,73,28.44,174.35-43.27,201.56-3.47.58,1.23-23.5,1.23-38.33,21-16.08,36.37-23.15,49.46-51.94,7.12-15.64,7.3-33.4,7.42-45.75C600.34,852.63,582.75,799.54,585.38,798.67Z"/><path class="cls-5" d="M685.54,790c50.7,49.46,44.52,95.21,42.05,116.23-1.94.4-15-30.93-17.35-36.38C708.62,853.16,682.69,790.32,685.54,790Z"/><path class="cls-5" d="M526,1003.94c-19.92,18.88-111.29-11.13-105.11-47,26,32.15,60.59,29.68,103.87,13.6C526,982.92,527.27,995.28,526,1003.94Z"/><path class="cls-5" d="M197.11,813.51c42.24-15.72,64.61-15.59,89-16.07,2.47-18.55-22.46-15.69-40.81-13.61C212,786.31,202.06,802.38,197.11,813.51Z"/><path class="cls-5" d="M276.25,900.07c-1.24,7.42-4.95,17.31-7.42,24.73,46.07-9.07,74.44-17.69,118.71-14.84,5.64-11,2.84-22-5-32.15C344.26,880.28,310.87,887.7,276.25,900.07Z"/><line class="cls-5" x1="468.85" y1="471.61" x2="522.32" y2="463.03"/><path class="cls-5" d="M389.39,370.21c-1.2,3.67,7.45,9.49,9.89,11.13,76.05-8,80.38,0,85.94-3.09,6.81-4.33,8.66-56.88,15.46-95.84-.62-8-7.23-15.81-11.75-14.22-9.27,29.06-7.42,65.54-9.27,97.07C448.13,369.59,409.8,365.88,389.39,370.21Z"/><path class="cls-5" d="M556.94,372.06c-1.9,2.91,1.88,8.44,3.71,11.13,30.92,4.95,79.14,23.5,90.27,19.79,8.66-6.18,12.37-96.45-16.07-110,7.42,24.73,16.07,75.42,6.18,95.21C613.82,386.9,568.07,368.35,556.94,372.06Z"/><path class="cls-5" d="M385.06,780.12c-21-13.6-42-23.21-56.88,1.24C311.65,762,318.52,754.09,324,747,341.67,730.67,379.55,760.77,385.06,780.12Z"/><line class="cls-5" x1="595.28" y1="249.65" x2="668.23" y2="290.45"/><line class="cls-5" x1="478.47" y1="232.49" x2="396.19" y2="265.72"/><path class="cls-5" d="M694.2,55.51c110,111.29,49.46,275.75,26,374.67,30.91-51.93,68-117.47,84.08-241.12C788.18,117.34,751.08,76.53,694.2,55.51Z"/><path class="cls-5" d="M341.67,217.37c10.86,16.7-1.4,46.44-21.07,44.31-6.53-1.79-3.47-15.35-3.52-17.63,3.76-1.32,12.75-17.61,14-29.55C334.88,213.19,338.46,213.57,341.67,217.37Z"/><path class="cls-6" d="M344.77,215.27A210.38,210.38,0,0,1,385,174.54,208.82,208.82,0,0,0,347.22,217Z"/><path class="cls-6" d="M337.48,208.45a144.45,144.45,0,0,1,11.24-19.8A148.07,148.07,0,0,1,362.85,171,147.2,147.2,0,0,0,350,189.45a142,142,0,0,0-9.75,20.18Z"/><path class="cls-6" d="M332.74,256.22a45.46,45.46,0,0,0-1.82,9.16,88.9,88.9,0,0,0-.42,9.53c.05,6.39.55,12.81,1.18,19.21-1.13-6.33-2.13-12.7-2.67-19.14a87.73,87.73,0,0,1-.33-9.74,47.9,47.9,0,0,1,1.17-9.84Z"/><path class="cls-6" d="M342.61,254.12a52.71,52.71,0,0,0,.42,13.37,126.93,126.93,0,0,0,2.77,13.37,129.59,129.59,0,0,1-4.24-13.08A55.29,55.29,0,0,1,339.61,254Z"/><path class="cls-5" d="M385.06,270.67c9.9-1.24,104.27-34.75,103.87-38.34-1.06-4.81-8.65-12.36-11.13-13.6Z"/><path class="cls-5" d="M668.62,289.23c-8.71-1.84-90.2-39-89.58-42.18,1.31-4.26,8.62-10.51,10.91-11.45Z"/><path class="cls-5" d="M461.73,472.22c22,6,87.58-6.45,60.59-13.6L471.62,466C467.67,467.94,460.48,471.88,461.73,472.22Z"/><path class="cls-6" d="M276.35,169a208.35,208.35,0,0,0-22,2.56c-3.62.67-7.22,1.39-10.76,2.33s-7.07,1.94-10.52,3.16-6.87,2.53-10.22,4c-1.7.69-3.32,1.54-5,2.31-.84.37-1.63.84-2.44,1.26L213,185.91a171.07,171.07,0,0,0-18.68,11.89,94.7,94.7,0,0,1,17.5-13.92c1.61-.95,3.2-2,4.86-2.83s3.31-1.78,5-2.57c3.4-1.59,6.89-3,10.43-4.26s7.18-2.24,10.84-3.07A106.63,106.63,0,0,1,276.35,169Z"/><path class="cls-6" d="M278.76,182.85c-5.52.54-11,1.19-16.33,2.2-2.68.53-5.35,1.07-8,1.79s-5.23,1.45-7.78,2.36-5.09,1.87-7.58,3c-1.26.51-2.47,1.13-3.71,1.69s-2.42,1.24-3.64,1.84a149.21,149.21,0,0,0-14.05,8.59,65.12,65.12,0,0,1,12.87-10.61,74.16,74.16,0,0,1,7.34-4.09,81.14,81.14,0,0,1,7.79-3.2,78.52,78.52,0,0,1,8.1-2.28,75,75,0,0,1,8.29-1.35A72,72,0,0,1,278.76,182.85Z"/><path class="cls-6" d="M72.67,429.47a205.23,205.23,0,0,0-.24,22.17c.21,3.67.47,7.33.95,11s1,7.26,1.81,10.84,1.64,7.13,2.69,10.64c.47,1.77,1.11,3.49,1.66,5.24.27.88.63,1.72.94,2.59l1,2.58a174.7,174.7,0,0,0,9.44,20,95.11,95.11,0,0,1-11.59-19.12c-.75-1.72-1.55-3.42-2.2-5.18s-1.35-3.5-1.92-5.3c-1.15-3.57-2.12-7.21-2.91-10.88s-1.32-7.4-1.68-11.13a103,103,0,0,1-.47-11.24A104.06,104.06,0,0,1,72.67,429.47Z"/><path class="cls-6" d="M86.7,428.82c-.16,5.55-.2,11,.12,16.49.19,2.72.39,5.43.78,8.12s.77,5.37,1.35,8,1.21,5.29,2,7.89c.35,1.32.81,2.59,1.21,3.89s.93,2.56,1.37,3.85a148.59,148.59,0,0,0,6.75,15A65.41,65.41,0,0,1,91.34,478a77.37,77.37,0,0,1-3.13-7.8,73.11,73.11,0,0,1-3.43-16.45,75.8,75.8,0,0,1-.29-8.39A71.75,71.75,0,0,1,86.7,428.82Z"/><path id="Карта-2" data-name="Карта" class="cls-7" d="M186.6,798.05c2.24-11.24,9.69-40.45,35.86-63.06,40.8-18.55,70.48-22.26,112.52-18.55,27.21,1.24,48.23,32.15,44.52,48.23-30.91-22.26-43.28-28.44-56.88-13.61C306.54,767.14,362.19,829,382,876c-65.53,13.6-76.66,14.83-124.89,30.91,4.95-32.15,11.13-60.59,7.42-92.74,9.18-8.15,22.92-13,22.26-21-.61-7.53-11.13-13.6-17.31-13.6C232.35,782,207.62,793.11,186.6,798.05Z"/><path class="cls-8" d="M335.6,803.62c1.66-1.9-14.74-32.79-17.31-35.86-6.18,0-17.31,12.36-29.68,13.6,0,8.66,0,27.2-23.86,28.5-1.55,6.1-1.4,13.07,1.61,21C305.93,839.48,304.69,804.85,335.6,803.62Z"/><path class="cls-8" d="M344.26,720.77,322,740.55c21,2.48,42,8.66,60.59,28.44C383.83,752.92,369,720.77,344.26,720.77Z"/><path class="cls-9" d="M224.81,734.24c-17.75,13.33-32.58,32.58-33.88,43,35.18-35.18,119.88-49.51,121.18-63.84C296.47,709.49,265.2,718.61,224.81,734.24Z"/><path class="cls-10" d="M696.64,137.31c5.82-.58,12.61-16.51,7.31-25.92-7.83-13.91-37.67-7.43-39.8-2.62-2.39,5.38,2.66,11.07,18.88,14.56C695.06,125.92,693,137.67,696.64,137.31Z"/><path class="cls-10" d="M432.62,859.54c-2.25.33-5.35,19.63,4.83,29.13,1.33,1.24,4.06,3.78,7,3.25,6-1.09,9.91-14.48,5.78-19.1-2.5-2.79-6.22-.45-11-3.71C433.82,865.45,433.9,859.35,432.62,859.54Z"/><path class="cls-10" d="M282.46,550.26c-6.28,1.65-11.29,28,11.29,43.57,2.27,1.57,6.53,4.48,11,4C316,595.62,316.22,575.34,311,568s-12.36-.31-17.21-4.14S289.86,548.32,282.46,550.26Z"/><path class="cls-10" d="M470.62,784.86c-2.94-1.42-13.95,7.63-14.15,20-.08,5.2,1.7,13,4.27,13.39C466.15,819.08,475.31,787.11,470.62,784.86Z"/><path class="cls-10" d="M450.84,823.11c-.59-2.29-9.83-3.71-12.4-.11-1.95,2.72.7,6,1,14,.32,7.65-1.72,11.55,0,12.72s6.13-2.27,8.47-4.86c2.91-3.22,6.3-9.17,4.24-12.36-1.44-2.24-4.64-1.71-5.06-3.54C446.6,826.68,451.28,824.84,450.84,823.11Z"/><ellipse class="cls-10" cx="499.44" cy="764.67" rx="14.45" ry="7.48" transform="translate(-383.94 532.72) rotate(-42.14)"/><ellipse class="cls-10" cx="533.45" cy="830.2" rx="7.42" ry="10.51"/><path class="cls-10" d="M505.59,885.11c-5.16,4.4-11.93,4.92-14.64,1.73-3.79-4.45,1.53-6.68,6.69-11.07s7.82-9.73,12-4.84C512.35,874.12,510.75,880.72,505.59,885.11Z"/><circle class="cls-10" cx="474.71" cy="903.16" r="5.56"/><ellipse class="cls-10" cx="531.59" cy="874.72" rx="5.56" ry="6.8"/><circle class="cls-10" cx="475.95" cy="866.06" r="5.56"/><circle class="cls-10" cx="503.15" cy="796.82" r="4.33"/><circle class="cls-10" cx="506.25" cy="822.17" r="4.95"/><circle class="cls-10" cx="406.7" cy="848.75" r="5.56"/><ellipse class="cls-10" cx="391.25" cy="819.69" rx="9.89" ry="6.18"/><ellipse class="cls-10" cx="377.03" cy="790.63" rx="4.33" ry="8.04"/><circle class="cls-10" cx="586.62" cy="421.53" r="8.66"/><ellipse class="cls-10" cx="611.97" cy="458" rx="11.75" ry="9.27"/><circle class="cls-10" cx="573.64" cy="462.95" r="8.04"/><ellipse class="cls-10" cx="410.41" cy="411.02" rx="6.8" ry="5.56"/><circle class="cls-10" cx="393.72" cy="447.49" r="8.66"/><circle class="cls-10" cx="425.87" cy="470.99" r="8.66"/><circle class="cls-10" cx="632.37" cy="113.63" r="6.18"/><ellipse class="cls-10" cx="691.11" cy="172.98" rx="6.8" ry="8.66"/><circle class="cls-10" cx="656.49" cy="84.57" r="6.8"/><ellipse class="cls-10" cx="636.08" cy="85.8" rx="3.71" ry="3.09"/><circle class="cls-10" cx="512.43" cy="908.72" r="4.95"/><path class="cls-10" d="M809.64,920.36c2.21-.56,3.38-20.07-7.69-28.51-1.45-1.1-4.41-3.36-7.27-2.54-5.82,1.67-8.42,15.39-3.85,19.58,2.76,2.53,6.23-.18,11.32,2.6C807.86,914.6,808.39,920.67,809.64,920.36Z"/><path class="cls-10" d="M796.56,860c3.07,1.11,13.12-9,12.08-21.36-.43-5.18-3-12.78-5.57-12.9C797.61,825.45,791.67,858.17,796.56,860Z"/><path class="cls-10" d="M795.14,958.42c.8,2.21,10.14,2.71,12.35-1.13,1.66-2.9-1.3-5.9-2.43-13.83-1.07-7.57.57-11.66-1.27-12.65s-5.87,2.86-7.94,5.67c-2.58,3.5-5.36,9.75-3,12.73,1.65,2.07,4.78,1.23,5.38,3C799,954.44,794.52,956.73,795.14,958.42Z"/><ellipse class="cls-10" cx="777.3" cy="874.24" rx="14.45" ry="7.48" transform="translate(-392.48 863.49) rotate(-47.83)"/><ellipse class="cls-10" cx="736.96" cy="812.4" rx="7.42" ry="10.51" transform="translate(-76.98 77.14) rotate(-5.7)"/><path class="cls-10" d="M759.23,755c4.7-4.88,11.38-6.08,14.4-3.17,4.21,4-.86,6.79-5.56,11.68s-6.82,10.46-11.45,6C753.59,766.61,754.53,759.88,759.23,755Z"/><circle class="cls-10" cx="919.87" cy="990.95" r="5.56"/><ellipse class="cls-10" cx="734.38" cy="767.92" rx="5.56" ry="6.8" transform="translate(-72.58 76.67) rotate(-5.7)"/><circle class="cls-10" cx="790.61" cy="771.01" r="5.56"/><circle class="cls-10" cx="770.42" cy="842.62" r="4.33"/><circle class="cls-10" cx="764.82" cy="817.7" r="4.95"/><circle class="cls-10" cx="836.5" cy="928.52" r="5.56"/><ellipse class="cls-10" cx="854.77" cy="955.9" rx="9.89" ry="6.18" transform="translate(-90.64 89.54) rotate(-5.7)"/><ellipse class="cls-10" cx="871.8" cy="983.4" rx="4.33" ry="8.04" transform="translate(-93.29 91.37) rotate(-5.7)"/><circle class="cls-10" cx="750.08" cy="732.18" r="4.95"/><path class="cls-10" d="M253,995.49c-1.46-1.74-19.53,5.73-22.28,19.38-.36,1.78-1.1,5.44.89,7.65,4,4.5,17.52.85,19.29-5.09,1.07-3.59-2.87-5.53-2.6-11.32C248.61,999.61,253.84,996.48,253,995.49Z"/><path class="cls-10" d="M256.71,936.3c-2.15-2.45-15.82,1.58-20.85,12.94-2.1,4.75-3.51,12.64-1.29,14C239.24,966.06,260.15,940.2,256.71,936.3Z"/><path class="cls-10" d="M291.11,1004.28c1.64-1.69-2-10.31-6.4-10.61-3.34-.23-4.75,3.74-11.39,8.22-6.34,4.27-10.74,4.58-10.83,6.67s5.14,4,8.58,4.66c4.27.79,11.11.56,12.75-2.87,1.15-2.39-1-4.83.37-6.16C285.85,1002.55,289.87,1005.57,291.11,1004.28Z"/><circle class="cls-10" cx="302.82" cy="942.9" r="5.56"/><circle class="cls-10" cx="250.88" cy="976.29" r="5.56"/><ellipse class="cls-10" cx="281.34" cy="962.87" rx="6.18" ry="9.89" transform="matrix(0.85, -0.52, 0.52, 0.85, -462.79, 290.16)"/><ellipse class="cls-10" cx="276.39" cy="935.53" rx="8.04" ry="4.33" transform="translate(-449.2 283.51) rotate(-31.6)"/><path class="cls-10" d="M485.31,825.65c-5.75,1.28-9.64,11.41-5.27,18.29,4.65,7.31,17.79,9.61,22.06,5.91,4-3.48.06-12.13-4-16.88C497.22,831.87,490.92,824.41,485.31,825.65Z"/><path class="cls-10" d="M785.31,812.15c5.59-1.83,8.46-12.31,3.42-18.72-5.35-6.8-18.65-7.8-22.53-3.69-3.64,3.86,1.15,12.08,5.61,16.41C772.84,807.15,779.85,814,785.31,812.15Z"/><path class="cls-10" d="M638.21,1030c2.17.67,13.37-15.34,8.34-28.33-.65-1.69-2-5.17-4.86-6-5.84-1.62-15.23,8.71-13.52,14.67,1,3.6,5.4,3.11,8.29,8.13C639.7,1024.11,637,1029.57,638.21,1030Z"/><path class="cls-10" d="M663.58,958c2,2.55,15.89-.8,21.47-11.89,2.34-4.64,4.15-12.46,2-13.91C682.52,929.16,660.34,954,663.58,958Z"/><path class="cls-10" d="M676.43,906.43c-.47,2.31,7.23,7.62,11.11,5.5,2.94-1.6,2-5.71,5.17-13.06,3-7,6.58-9.65,5.53-11.45s-6.5-.63-9.73.68c-4,1.64-9.67,5.52-9.21,9.29.33,2.64,3.43,3.55,3,5.39C681.8,905.06,676.79,904.67,676.43,906.43Z"/><ellipse class="cls-10" cx="639.69" cy="967.55" rx="14.45" ry="7.48" transform="translate(-246.01 218.63) rotate(-16.31)"/><ellipse class="cls-10" cx="671.02" cy="794.82" rx="7.42" ry="10.51" transform="translate(-224.25 1324.45) rotate(-80.44)"/><path class="cls-10" d="M686.63,849c6.56-1.71,12.88.77,13.93,4.83,1.47,5.65-4.28,5.34-10.84,7s-11.29,5.35-12.91-.87C675.76,856,680.07,850.75,686.63,849Z"/><ellipse class="cls-10" cx="658.69" cy="847.07" rx="6.8" ry="5.56" transform="translate(-390.72 1070.97) rotate(-64.18)"/><circle class="cls-10" cx="671.39" cy="882.4" r="5.56"/><circle class="cls-10" cx="650.36" cy="929.58" r="4.33"/><circle class="cls-10" cx="658.62" cy="905.41" r="4.95"/><circle class="cls-10" cx="690.76" cy="824.81" r="4.95"/><path class="cls-10" d="M198,326.09c-3-1.27-13.58,8.27-13.21,20.69.16,5.19,2.29,12.92,4.88,13.17C195.11,360.49,202.79,328.13,198,326.09Z"/><path class="cls-10" d="M228,567.48c2,1.29,9.75-3.89,9.22-8.29-.41-3.32-4.58-4-10.22-9.63-5.39-5.43-6.53-9.68-8.59-9.38s-3,5.81-3,9.3c0,4.35,1.55,11,5.22,12,2.57.67,4.57-1.87,6.12-.81C228.75,562,226.54,566.5,228,567.48Z"/><ellipse class="cls-10" cx="255.27" cy="534.93" rx="14.45" ry="7.48" transform="translate(-337.39 542.67) rotate(-65.24)"/><ellipse class="cls-10" cx="183.44" cy="485.51" rx="7.42" ry="10.51" transform="translate(-175.78 110.9) rotate(-23.1)"/><path class="cls-10" d="M180.11,427.79c3-6.07,9-9.21,12.79-7.34,5.23,2.61,1.21,6.74-1.81,12.81s-3.38,12-9.14,9.16C178.2,440.55,177.08,433.85,180.11,427.79Z"/><circle class="cls-10" cx="228.59" cy="275.13" r="5.56"/><ellipse class="cls-10" cx="171.39" cy="410.45" rx="5.56" ry="6.8" transform="translate(-147.3 100.15) rotate(-23.1)"/><circle class="cls-10" cx="313.91" cy="617.7" r="5.56"/><circle class="cls-10" cx="216.99" cy="508.05" r="4.33"/><circle class="cls-10" cx="263.83" cy="568.87" r="4.95"/><circle class="cls-10" cx="245.92" cy="508.92" r="5.56"/><ellipse class="cls-10" cx="331.36" cy="590.91" rx="9.89" ry="6.18" transform="translate(-205.27 177.39) rotate(-23.1)"/><ellipse class="cls-10" cx="355.85" cy="612.06" rx="4.33" ry="8.04" transform="translate(-211.6 188.69) rotate(-23.1)"/><circle class="cls-10" cx="180.97" cy="389.54" r="4.95"/><path class="cls-10" d="M222.09,474.52c4.79-3.42,4.39-14.28-2.33-18.89-7.15-4.89-20.13-1.86-22.61,3.22-2.32,4.77,4.71,11.19,10.26,14C208.69,473.48,217.41,477.87,222.09,474.52Z"/><circle class="cls-10" cx="410.41" cy="981.06" r="5.56"/><ellipse class="cls-10" cx="440.03" cy="1003.82" rx="8.04" ry="4.33" transform="translate(-631.8 774.78) rotate(-54.27)"/><path class="cls-10" d="M137.25,828.54c1.15,1.7,18-3.37,21.74-15.37.48-1.56,1.47-4.78-.11-6.94-3.23-4.41-15.65-2.35-17.77,2.82-1.29,3.13,2.08,5.22,1.32,10.39C141.57,825.25,136.59,827.58,137.25,828.54Z"/><path class="cls-10" d="M175.57,841.75c1.72,2.39,14.34,0,19.87-9.73,2.32-4.07,4.3-11,2.43-12.44C193.93,816.62,172.84,837.94,175.57,841.75Z"/><path class="cls-10" d="M138.12,876.34c2-.64,2.88-9-.48-11.18-2.54-1.62-5.38.92-12.57,1.6-6.86.64-10.48-1-11.44.6s2.32,5.41,4.77,7.4c3,2.47,8.55,5.24,11.33,3.23,1.94-1.4,1.32-4.25,3-4.72C134.71,872.69,136.58,876.82,138.12,876.34Z"/><ellipse class="cls-10" cx="329.33" cy="705.93" rx="13.03" ry="6.74" transform="translate(-136.07 81.27) rotate(-11.68)"/><ellipse class="cls-10" cx="149.28" cy="785.35" rx="10.51" ry="7.42" transform="translate(-327.53 143.71) rotate(-25.85)"/><path class="cls-10" d="M235.3,720.68c6.2-2.74,12.29-2.53,13.42,0,1.57,3.55-3.93,4.7-10.13,7.44s-10.6,6.37-12.32,2.46C225.14,728.05,229.1,723.41,235.3,720.68Z"/><circle class="cls-10" cx="183.03" cy="785.91" r="5.02"/><ellipse class="cls-10" cx="275.47" cy="263.09" rx="6.8" ry="5.56" transform="translate(-87.16 146.46) rotate(-25.85)"/><circle class="cls-10" cx="121.59" cy="811.06" r="5.02"/><circle class="cls-10" cx="116.54" cy="849.8" r="3.9"/><circle class="cls-10" cx="171.08" cy="861.99" r="4.95"/><circle class="cls-10" cx="138.67" cy="843.49" r="5.02"/><ellipse class="cls-10" cx="284.47" cy="696.98" rx="8.92" ry="5.57" transform="translate(-467.78 668.31) rotate(-65.61)"/><ellipse class="cls-10" cx="141.78" cy="888.88" rx="7.25" ry="3.9" transform="translate(-373.43 150.8) rotate(-25.85)"/><circle class="cls-10" cx="183.47" cy="753.15" r="4.95"/><path class="cls-10" d="M322.68,596.42c2.6,3.29,10.3,2.64,13.35-2.3,3.23-5.24.63-14.37-3.06-16-3.48-1.49-7.79,3.72-9.59,7.76C323,586.87,320.14,593.22,322.68,596.42Z"/><path class="cls-11" d="M486.46,267c-69-11.94-92.32,34.52-97.69,103.87l91.51-2.48Z"/><path class="cls-11" d="M566.71,271.5c70.07.44,84.78,50.28,77.82,119.49L554.9,372.4Z"/><path class="cls-12" d="M556.59,332.08c1.68,12.85,62.18,51.11,83.2,31.33,0,0-2.81,29.19,1.24,26,0,0-52.93-14.19-88.8-17.8Z"/><path class="cls-12" d="M483.15,327.09c-4.12,12.29-70.82,38.26-87.67,14.81,0,0-2.83,29.19-6.18,25.25,0,0,54.66-3.78,90.56-.45Z"/><path class="cls-13" d="M619.13,354.28a26.75,26.75,0,0,1-18,25.27l-28-6.71a26.73,26.73,0,1,1,46-18.56Z"/><path class="cls-14" d="M417.21,314c8.26-15.69,20-25.71,37.1-27.21"/><path class="cls-14" d="M624.06,325c-7.26-16.18-18.38-26.91-35.31-29.49"/><ellipse class="cls-15" cx="440.09" cy="306.53" rx="6.8" ry="4.95" transform="translate(-96.23 305.95) rotate(-34.8)"/><ellipse class="cls-15" cx="600.84" cy="315.18" rx="4.95" ry="6.8" transform="translate(-70.46 413.68) rotate(-36.03)"/><circle class="cls-16" cx="585.74" cy="361.4" r="13.27"/><circle class="cls-15" cx="578.64" cy="351.65" r="5.84"/><circle class="cls-15" cx="586.62" cy="346.1" r="2.47"/><path class="cls-13" d="M446.57,367.15a26.73,26.73,0,1,0-33.17,1.28Z"/><circle class="cls-16" cx="424.99" cy="352.74" r="13.27"/><circle class="cls-15" cx="416.65" cy="341.76" r="5.84"/><circle class="cls-15" cx="424.63" cy="334.97" r="2.47"/><g id="щуп_чешется" data-name="щуп чешется"><path class="cls-17" d="M294.17,207.57l-.48-.36c-.14-.12-.23-.23-.35-.35l-.69-.69a7.64,7.64,0,0,1-.91-1.32,4.5,4.5,0,0,1-.51-2.49c.23-1.57.48-3.14.77-4.71.54-3.14,1.2-6.27,1.9-9.39a182.09,182.09,0,0,1,5.24-18.48,166.52,166.52,0,0,1,40.54-64.88,201.61,201.61,0,0,1,29.57-24.22,248.11,248.11,0,0,1,33-18.62A332.1,332.1,0,0,1,437,48c23.65-8,47.89-13.64,72.24-17.89,6.12-1,12.14-2,18.36-2.88l4.66-.66,4.71-.43,4.71-.42,4.65-.32c12.41-.83,24.87-1.14,37.33-.78a312.28,312.28,0,0,1,74,10.8A291,291,0,0,1,693.12,47.8a296.12,296.12,0,0,1,33.7,16.44Q735,69,742.8,74.32c5.18,3.6,10.23,7.44,15.09,11.53a175.59,175.59,0,0,1,26.46,27.66,154.14,154.14,0,0,1,10.75,16.12,144.22,144.22,0,0,1,18.24,55.22,173.63,173.63,0,0,1,.16,38.6,260.72,260.72,0,0,1-7,37.42c-6.31,24.43-15.45,47.72-25.62,70.29s-21.77,44.35-33.76,65.75-24.42,42.46-36.6,63.57-24.17,42.26-34.41,64.07c-2.56,5.44-5,11-7.14,16.51s-4.18,11.17-5.78,16.84A96.88,96.88,0,0,0,659.86,575a53,53,0,0,0-.19,8.43,25.12,25.12,0,0,0,.49,3.85,33.54,33.54,0,0,0,1.1,3.79,60.81,60.81,0,0,0,8.27,14.77A150,150,0,0,0,681,619.33c4.1,4.37,8.41,8.59,12.8,12.81s8.82,8.43,13.2,13.05l-.29-.29c9.61,8.69,19.21,17.4,28.72,26.25q7.14,6.65,14.15,13.48c4.67,4.57,9.28,9.28,13.69,14.33,2.19,2.54,4.34,5.16,6.37,7.89s3.88,5.49,5.67,8.24c3.63,5.55,7,11.27,10.15,17.15a194.12,194.12,0,0,1,14.87,37c3.72,12.75,6.1,25.72,8.71,38.24,1.32,6.18,2.8,12.59,4.19,18.9s2.76,12.67,4.07,19l3.94,19c1.31,6.32,2.64,12.6,4.15,18.76A137.92,137.92,0,0,0,831,901.06a172.12,172.12,0,0,0,8,17.09l-.18-.3a132.64,132.64,0,0,0,26,30.21,162.53,162.53,0,0,0,33.54,22.2,146.87,146.87,0,0,0,18.55,7.79c1.58.52,3.11,1,4.61,1.36s3.26.75,4.9,1.08c3.29.65,6.61,1.22,10,1.68,13.4,1.88,27.27,2.31,41.28,4.41a128.8,128.8,0,0,1,20.86,4.81,106.72,106.72,0,0,1,19.75,8.73c3.14,1.76,6.22,3.75,9.1,5.72a93,93,0,0,1,8.75,6.52,28.23,28.23,0,0,1,4.28,4.51,16.3,16.3,0,0,1,1.83,3.26,12.84,12.84,0,0,1,.92,4,16.31,16.31,0,0,1-.17,3.7l-.07.42,0,.21-.06.28a10.52,10.52,0,0,1-.3,1.1,10.26,10.26,0,0,1-.92,2.08,14.79,14.79,0,0,1-5.58,5.38,26.94,26.94,0,0,1-5.84,2.46,48.94,48.94,0,0,1-5.66,1.31c-1.86.33-3.71.55-5.54.72s-3.55.25-5.33.38a170.88,170.88,0,0,1-21.35.06c-7.1-.38-14.12-1.24-20.92-2-3.4-.37-6.74-.69-10-.88l-2.46-.11-2.55-.06c-1.71,0-3.42-.09-5.13-.1-6.83-.1-13.66,0-20.51.09l-20.76.51c-7,.13-14,.08-21-.2-3.51-.15-7-.32-10.51-.56-1.73-.09-3.52-.25-5.31-.42l-2.68-.24-2.68-.34a116.43,116.43,0,0,1-21.26-4.6c-1.75-.52-3.46-1.22-5.19-1.82s-3.42-1.34-5.08-2.14a91.11,91.11,0,0,1-9.74-5.12c-3.13-1.87-6.13-3.92-9-5.87s-5.75-4-8.58-6c-5.7-4.07-11.31-8.29-16.79-12.73A217.65,217.65,0,0,1,761.65,970a246.4,246.4,0,0,1-24-34.77c-3.52-6.06-6.86-12.2-10.07-18.39s-6.24-12.46-9.22-18.74c-5.93-12.56-11.59-25.22-17.09-37.93a3.82,3.82,0,0,1,6.95-3.15v0C720,882,731.76,907,745.81,930.4a235.46,235.46,0,0,0,23.65,33,215.21,215.21,0,0,0,29.32,27.83c5.31,4.22,10.79,8.25,16.38,12.16,2.79,2,5.62,3.87,8.47,5.81s5.61,3.76,8.44,5.41a78.2,78.2,0,0,0,8.64,4.43c1.47.69,3,1.23,4.49,1.84s3,1.12,4.62,1.56a111.54,111.54,0,0,0,19.25,4l2.46.31,2.48.21c1.66.14,3.31.29,5,.38,3.4.22,6.8.37,10.2.5,6.8.25,13.59.28,20.43.2,13.67-.19,27.69-.77,41.67-.3,1.75,0,3.5.12,5.24.18l2.63.09,2.72.16c3.61.25,7.14.64,10.61,1.06,6.94.85,13.64,1.76,20.34,2.21a160.45,160.45,0,0,0,20.1.2c1.66-.1,3.43-.18,5-.3s3.2-.3,4.74-.53a27.39,27.39,0,0,0,8.21-2.36,5.16,5.16,0,0,0,2-1.55,1.1,1.1,0,0,0,.15-.28.59.59,0,0,0,.06-.14v0l0-.11,0-.22a6.88,6.88,0,0,0,.17-1.47,3,3,0,0,0-.18-1.07,5.32,5.32,0,0,0-.65-1.28,19.28,19.28,0,0,0-2.72-3.11,85.22,85.22,0,0,0-7.62-6.18c-1.37-1-2.75-2-4.12-2.92l-2.05-1.37c-.7-.45-1.41-.86-2.12-1.3a80.53,80.53,0,0,0-8.78-4.6,81.53,81.53,0,0,0-9.26-3.56,120.17,120.17,0,0,0-19.53-4.38c-13.36-1.93-27.21-2.29-41.21-4.16-3.5-.45-7-1-10.5-1.7-1.74-.34-3.49-.72-5.23-1.13s-3.63-1-5.34-1.53a163,163,0,0,1-19.73-8.1,171.68,171.68,0,0,1-35.71-23.08,141.71,141.71,0,0,1-28.26-32.11l-.15-.26,0,0a187.35,187.35,0,0,1-8.62-18,148.77,148.77,0,0,1-6.16-19.09c-1.65-6.39-3.07-12.75-4.46-19.09l-4.15-19-4.21-18.9c-1.43-6.32-2.9-12.52-4.32-19-2.73-12.79-5.11-25.3-8.72-37.38a188.5,188.5,0,0,0-14.17-34.85q-4.39-8.34-9.56-16.28c-1.74-2.67-3.47-5.29-5.26-7.79s-3.72-4.9-5.72-7.28c-8.16-9.47-17.37-18.55-26.57-27.54s-18.62-17.86-28-26.71l-.07-.06-.22-.23c-3.91-4.33-8.32-8.56-12.65-12.86s-8.71-8.67-13-13.2a161.37,161.37,0,0,1-12.15-14.39,69.66,69.66,0,0,1-9.68-17,42.82,42.82,0,0,1-1.49-5,34.13,34.13,0,0,1-.73-5.21,64.87,64.87,0,0,1,0-9.86,105.89,105.89,0,0,1,3.31-18.88c3.17-12.23,7.72-23.83,12.57-35.21s10.22-22.46,15.73-33.44S693,464.79,698.73,454c11.38-21.64,22.82-43.16,33.78-64.84s21.44-43.49,30.69-65.7c4.66-11.08,9-22.25,12.87-33.54q2.88-8.47,5.46-17t4.63-17.14a266.47,266.47,0,0,0,6.13-34.55,203.3,203.3,0,0,0,1-34.49,137.44,137.44,0,0,0-6.07-33.57,117.08,117.08,0,0,0-15.09-30.75,131,131,0,0,0-23.49-25.62q-6.71-5.66-14-10.71t-15-9.48a287.85,287.85,0,0,0-65.76-27.3,272.91,272.91,0,0,0-34.94-7,312,312,0,0,0-35.65-2.66c-11.93-.22-23.9.19-35.83,1.16l-4.47.36-4.4.46-4.41.45-4.39.68c-5.85.9-11.86,2-17.76,3C488.42,50.18,465,55.94,442.53,63.89s-44.14,18-63.49,31.22a183.91,183.91,0,0,0-26.93,22.19,157.17,157.17,0,0,0-21.55,27,150.59,150.59,0,0,0-14.91,31.14,167.23,167.23,0,0,0-4.81,16.71c-.64,2.83-1.26,5.67-1.76,8.54-.28,1.43-.49,2.88-.74,4.31s-1.36,2.74-4.26,3.86l-.18.07A10.17,10.17,0,0,1,294.17,207.57Z"/></g><g id="щуп_чешется-2" data-name="щуп чешется"><path class="cls-17" d="M248.14,704.79a4.94,4.94,0,0,1-3.06-1.41,28.64,28.64,0,0,1-1.79-2.32l-3.45-4.73L233,686.82c-4.51-6.36-9-12.76-13.3-19.24s-8.65-13-12.86-19.51-8.34-13.16-12.44-19.78c-16.32-26.55-31.85-53.57-46.34-81.24-7.21-13.86-14.17-27.87-20.53-42.27-3.18-7.2-6.19-14.5-8.91-22-1.35-3.76-2.62-7.57-3.76-11.48a96.88,96.88,0,0,1-2.79-12.19,227.84,227.84,0,0,1-2.23-23.9q-.51-11.93,0-23.85a263.52,263.52,0,0,1,6.37-47.26,229.41,229.41,0,0,1,15.43-45.27A206.66,206.66,0,0,1,156.81,278a209.58,209.58,0,0,1,74.5-59.15,173.1,173.1,0,0,1,45.81-14.59c4-.66,8.05-1.09,12.11-1.39a114.6,114.6,0,0,1,12.3-.13c1,0,2.07.14,3.1.21s2.06.15,3.09.3l3.11.39c1.09.17,2.17.37,3.26.62a33.46,33.46,0,0,1,12.82,5.61,23.82,23.82,0,0,1,5.34,5.49,23.12,23.12,0,0,1,3.28,7,17.73,17.73,0,0,1,.46,2,18.2,18.2,0,0,1,.23,2.07,21,21,0,0,1-.13,4,28.49,28.49,0,0,1-1.93,7.07A42.34,42.34,0,0,1,327,248.83a51.78,51.78,0,0,1-4.59,4.66c-.86.8-1.7,1.41-2.55,2.08l-1.28,1-1.29.91a92.74,92.74,0,0,1-22.07,11.06c-7.56,2.76-15.12,4.88-22.44,7.13a167.75,167.75,0,0,0-21.15,7.73,81,81,0,0,0-18.43,11.5,77.34,77.34,0,0,0-7.76,7.61,88.28,88.28,0,0,0-6.87,8.57,87.06,87.06,0,0,0-10.2,19.35c-5.2,13.75-7.12,28.75-6.74,43.72a182.56,182.56,0,0,0,7.1,44.59,232.29,232.29,0,0,0,16.56,42.34,179.93,179.93,0,0,0,11.47,19.48c2.09,3,4.46,6.16,6.72,9.26s4.6,6.15,7,9.14a382.6,382.6,0,0,0,30.36,34.46c5.38,5.45,11,10.65,16.71,15.75s11.63,10,17.65,14.72c3,2.36,6.09,4.71,9.13,7l4.58,3.37,1.14.84a3.64,3.64,0,0,0,.52.35l.47.3c.71.41,1.43.83,2.16,1.17a15.73,15.73,0,0,0,8.66,1.77,14.23,14.23,0,0,0,7.78-3.7,26.14,26.14,0,0,0,5.86-7.81,24.76,24.76,0,0,0,1.78-4.52c.1-.37.18-.73.24-1.06l.25-1.37c.16-.93.38-1.91.49-2.8a105.19,105.19,0,0,0,.81-22.21c-.92-15-3.91-30.1-7.5-45s-8-29.74-12.5-44.54-9.26-29.56-13.89-44.39S316,371.52,311.78,356.5s-8.1-30.16-11.36-45.5a460.83,460.83,0,0,1-7.58-46.56,6.31,6.31,0,1,1,12.55-1.35,1,1,0,0,1,0,.17v0a403.17,403.17,0,0,0,6.31,45.42c2.9,15.07,6.41,30.07,10.4,45,7.94,29.83,17.28,59.36,26.2,89.16,4.44,14.9,8.75,29.89,12.39,45.12s6.73,30.72,7.7,46.69a115.75,115.75,0,0,1-.92,24.2c-.14,1-.35,1.95-.51,2.94l-.27,1.48c-.11.63-.25,1.21-.4,1.78a34,34,0,0,1-2.43,6.31,35.57,35.57,0,0,1-8,10.68,26,26,0,0,1-5.88,4,22.16,22.16,0,0,1-7.06,2.08,23.11,23.11,0,0,1-7.3-.35,28.89,28.89,0,0,1-6.58-2.27c-1-.48-2-1-2.95-1.59l-.76-.47a8.23,8.23,0,0,1-.69-.46l-1.2-.88-4.81-3.51c-3.17-2.36-6.27-4.72-9.37-7.13q-9.27-7.24-18.13-15c-5.87-5.22-11.65-10.54-17.2-16.11a395.17,395.17,0,0,1-31.23-35.24c-2.45-3.06-4.79-6.21-7.17-9.31s-4.65-6.22-7-9.56a187.45,187.45,0,0,1-12.18-20.55,242.22,242.22,0,0,1-17.43-44.14,196.31,196.31,0,0,1-7.66-47.06,139.1,139.1,0,0,1,1.24-24.1,112.44,112.44,0,0,1,5.89-23.63,97.75,97.75,0,0,1,11.32-21.77,100.74,100.74,0,0,1,7.6-9.62,90.59,90.59,0,0,1,8.8-8.72A91.91,91.91,0,0,1,247,273.4,177.76,177.76,0,0,1,269.44,265c7.48-2.35,14.85-4.47,21.86-7.07a81.57,81.57,0,0,0,19.37-9.8l1.08-.77,1-.8c.66-.53,1.39-1.07,1.94-1.6a39.45,39.45,0,0,0,3.55-3.65,30.73,30.73,0,0,0,5.2-8.23,16.66,16.66,0,0,0,1.12-4.11,9.5,9.5,0,0,0,.05-1.83,7.07,7.07,0,0,0-.1-.82,5.72,5.72,0,0,0-.19-.81,11.53,11.53,0,0,0-4.41-6.27,22.24,22.24,0,0,0-8.4-3.51c-.8-.18-1.63-.33-2.46-.45l-2.66-.32c-.89-.12-1.79-.18-2.7-.24s-1.79-.16-2.71-.16a102.77,102.77,0,0,0-10.95.18c-3.67.3-7.34.7-11,1.33a161.11,161.11,0,0,0-42.48,13.85,196.94,196.94,0,0,0-69.66,56c-18.52,23.66-31,51.73-37.66,81.14a250.63,250.63,0,0,0-5.87,44.87A238.37,238.37,0,0,0,125.6,457a84.71,84.71,0,0,0,2.46,10.46c1,3.53,2.24,7.08,3.52,10.62,2.59,7.07,5.52,14.1,8.64,21.08,6.22,14,13.12,27.73,20.29,41.36,14.39,27.25,29.94,54,46,80.34q6,9.9,12.16,19.72c4.07,6.56,8.15,13.11,12.31,19.62s8.3,13,12.51,19.48l6.37,9.65,3.23,4.8c.52.81,1.13,1.56,1.57,2.42a4.91,4.91,0,0,1,.32,3.33v.05A6.31,6.31,0,0,1,248.14,704.79Z"/></g><g id="щуп_карту_слева" data-name="щуп карту слева"><path class="cls-17" d="M217.78,796.19A135.16,135.16,0,0,0,202.06,813c-4.94,6.1-9.69,12.48-14.71,18.79A150.94,150.94,0,0,1,170.87,850c-6.14,5.56-13.36,10.42-21.57,13a3.27,3.27,0,0,1-2.08-6.19h0c7-2.48,13.14-6.91,18.59-12.22a143.53,143.53,0,0,0,15-17.76c4.68-6.34,9.21-12.91,14.07-19.38a144.21,144.21,0,0,1,16.2-18.64,5,5,0,0,1,6.86,7.29Z"/></g><g id="щуп_карту_слева-2" data-name="щуп карту слева"><path class="cls-17" d="M303.89,688.29q-11.4,3.21-22.55,7.15c-7.44,2.6-14.8,5.43-22,8.56s-14.38,6.42-21.36,10q-2.64,1.32-5.22,2.74l-5.18,2.82c-3.4,2-6.83,3.88-10.16,6a336.61,336.61,0,0,0-38.47,27.22,441.84,441.84,0,0,0-35,31.78q-16.62,16.81-31.55,35.18A387.46,387.46,0,0,0,84.85,858c-4.17,6.63-8.08,13.4-11.63,20.31A169.25,169.25,0,0,0,64,899.46c-2.47,7.15-4.35,14.54-4.52,21.48a24.07,24.07,0,0,0,1.45,9.38,11.76,11.76,0,0,0,5.08,6l-.49-.25c5.65,2.57,11.36,5,17.16,7a119.82,119.82,0,0,0,17.64,4.59c11.85,2.09,23.94,1.9,35-1.74a65.89,65.89,0,0,0,15.81-7.58A89.29,89.29,0,0,0,165,926.93c8.59-8.58,15.92-18.66,22.8-29.17s13.25-21.55,19.92-32.56,13.61-22.06,22.05-32.37a106.85,106.85,0,0,1,14.11-14.45,76.66,76.66,0,0,1,8.37-6.07c1.45-1,3-1.75,4.53-2.61l2.37-1.15,1.19-.56,1.27-.52c.83-.33,1.72-.7,2.51-1l2.16-.74c1.5-.46,2.78-1,4.11-1.6a28.77,28.77,0,0,0,6.93-4.13,11.47,11.47,0,0,0,3.86-5.25,7.48,7.48,0,0,0,.36-2.82,7.87,7.87,0,0,0-.67-2.84l.25.46a9.76,9.76,0,0,0-2.65-2.87,18.19,18.19,0,0,0-4.11-2.21h0a5,5,0,0,1,3.56-9.35,28.29,28.29,0,0,1,6.5,3.35,19.86,19.86,0,0,1,5.52,5.82,2.78,2.78,0,0,1,.22.42l0,0a18.29,18.29,0,0,1,1,13,10.29,10.29,0,0,1-.55,1.56c-.22.51-.42,1-.66,1.52l-.8,1.4a11.23,11.23,0,0,1-.86,1.33,25.72,25.72,0,0,1-4.1,4.44,39.28,39.28,0,0,1-9.37,5.85c-1.61.71-3.24,1.46-4.8,2l-2.37.84c-.7.28-1.28.55-1.92.82l-.95.4-1,.48-1.94,1c-1.25.74-2.54,1.4-3.74,2.23a64.08,64.08,0,0,0-7.07,5.29A102.46,102.46,0,0,0,238.59,840c-7.71,9.57-14.35,20.29-20.85,31.19s-12.86,22.11-19.89,33.06S183,925.94,173.51,935.48a101.3,101.3,0,0,1-15.78,12.91,77.89,77.89,0,0,1-18.69,9,75.6,75.6,0,0,1-20.43,3.6,94.86,94.86,0,0,1-20.39-1.45,132.32,132.32,0,0,1-19.46-5,194.13,194.13,0,0,1-18.37-7.5l0,0a3.75,3.75,0,0,1-.44-.24,24.93,24.93,0,0,1-6.09-5.15,24.07,24.07,0,0,1-4-6.76,36,36,0,0,1-2.22-14.09,66.13,66.13,0,0,1,1.76-13,109.37,109.37,0,0,1,3.58-12.12,181.64,181.64,0,0,1,10-22.58c3.79-7.24,7.9-14.26,12.26-21.1a404.12,404.12,0,0,1,28.61-39.15A464.57,464.57,0,0,1,172.67,745a341.46,341.46,0,0,1,39.91-27.47A347.21,347.21,0,0,1,301.94,681a3.76,3.76,0,0,1,1.95,7.27Z"/></g><g id="щуп_карту_справа" data-name="щуп карту справа"><path class="cls-17" d="M566.32,774.62l4.32,4.65,2.16,2.32c.7.79,1.34,1.64,2,2.46l4,5c1.29,1.69,2.47,3.46,3.7,5.19l1.83,2.61c.61.88,1.13,1.81,1.69,2.72l3.31,5.47c1,1.89,1.94,3.81,2.91,5.71.48,1,1,1.91,1.44,2.87l1.24,3a125.76,125.76,0,0,1,7.8,24.46l1.2,6.33c.32,2.12.51,4.26.77,6.39l.36,3.21.15,3.21c.08,2.14.23,4.29.24,6.43-.11,4.28-.05,8.58-.55,12.84l-.28,3.2-.14,1.6-.24,1.59-1,6.34c-.14,1.06-.35,2.1-.58,3.15l-.67,3.13c-.47,2.08-.82,4.19-1.44,6.23l-1.69,6.17c-.15.51-.26,1-.44,1.54l-.57,1.61-1.15,3.2a81.2,81.2,0,0,1-14.28,22.28,118.63,118.63,0,0,1-19.32,17.26,161.55,161.55,0,0,1-45.74,22.72,152.14,152.14,0,0,1-25,5.64,124.52,124.52,0,0,1-25.84.91c-.55,0-1.09-.06-1.63-.11l-1.63-.19-3.24-.39c-2.17-.29-4.32-.75-6.48-1.13s-4.28-1-6.4-1.64l-3.15-1-1.58-.51-1.59-.65L437.63,979c-.26-.11-.53-.21-.79-.34l-.78-.45-1.55-.92a32.06,32.06,0,0,1-2.92-1.92l-1.4-1-1.33-1.06a66.85,66.85,0,0,1-9.57-9.37,106.54,106.54,0,0,1-7.74-10.53c-2.31-3.63-4.45-7.33-6.45-11.08-4-7.5-7.46-15.14-10.73-22.81-6.55-15.33-12.43-30.73-19-45.75-1.64-3.75-3.3-7.49-5-11.18s-3.52-7.38-5.33-10.92c-.43-.9-.92-1.76-1.42-2.62l-1.5-2.58c-1-1.75-2.07-3.5-3.15-5.24-2.12-3.48-4.33-7-6.53-10.41-8.88-13.86-18-27.69-26.61-42-1.07-1.78-2.14-3.57-3.18-5.38s-2.11-3.6-3.13-5.42L318,775.35l-.86-1.68c-.26-.58-.49-1.16-.73-1.75a26.73,26.73,0,0,1-1.62-7.27,25.5,25.5,0,0,1,3-14.62,19.85,19.85,0,0,1,5.28-6,24.85,24.85,0,0,1,6.67-3.55A31.26,31.26,0,0,1,344,739c.63.1,1.22.17,1.89.33l1,.23.8.26,3.19,1c1.06.36,2.07.82,3.11,1.22l1.54.64,1.51.74c1,.52,2,.94,3,1.54l2.89,1.71,2.77,1.92c.93.63,1.76,1.38,2.65,2.07a66.06,66.06,0,0,1,9.26,9.52c5.42,6.9,9.56,14.38,13.4,21.8s7.36,14.9,11.07,22.2,7.57,14.5,11.74,21.5,8.64,13.78,13.42,20.36,9.93,13,15.19,19a11.24,11.24,0,0,0,3.6,2.69,3.87,3.87,0,0,0,3.11.16,7.24,7.24,0,0,0,3-2.51,11.48,11.48,0,0,0,1.15-2,7.71,7.71,0,0,0,.59-1.85l0-.12a3.84,3.84,0,0,1,7.6,1.05,14.46,14.46,0,0,1-1.17,4.06,18.81,18.81,0,0,1-1.93,3.38,14.86,14.86,0,0,1-6.45,5.23,11.62,11.62,0,0,1-4.58.81,12.37,12.37,0,0,1-4.37-1,16,16,0,0,1-3.52-2c-.53-.38-1-.78-1.48-1.19l-.72-.68a7.41,7.41,0,0,1-.63-.64c-5.71-6.37-11-12.81-16-19.56a299.88,299.88,0,0,1-26.15-42.82c-3.82-7.4-7.41-14.85-11.18-22.09-1.9-3.6-3.82-7.16-5.9-10.58a98.85,98.85,0,0,0-6.7-9.72,56.43,56.43,0,0,0-8-8.16c-.75-.57-1.44-1.21-2.23-1.73l-2.34-1.6-2.44-1.42c-.8-.51-1.69-.85-2.53-1.29l-1.28-.62-1.32-.53c-.89-.34-1.77-.74-2.67-1l-2.7-.87-.67-.22-.53-.11c-.34-.09-.77-.13-1.17-.19A22.32,22.32,0,0,0,332.74,749a12.73,12.73,0,0,0-7.06,5.5,16.52,16.52,0,0,0-1.76,9.34,18.1,18.1,0,0,0,1.09,4.77l.47,1.11.56,1.07,1.53,2.66c1,1.77,2,3.54,3.09,5.29s2.09,3.52,3.16,5.27c8.52,14,17.69,27.68,26.71,41.59,2.25,3.49,4.5,7,6.7,10.53,1.11,1.77,2.19,3.57,3.27,5.36l1.62,2.77c.55.93,1.09,1.86,1.55,2.81,2,3.81,3.83,7.53,5.61,11.32s3.52,7.58,5.22,11.38c6.74,15.24,12.75,30.68,19.27,45.69,3.26,7.51,6.69,14.89,10.48,22q2.87,5.29,6.07,10.3a99.8,99.8,0,0,0,7,9.39,56.16,56.16,0,0,0,8.13,7.91l1.09.88,1.14.78a24.88,24.88,0,0,0,2.26,1.48l1.11.66.55.34.63.26,2.56,1L446,971l1.37.43,2.74.89c1.84.53,3.73.95,5.6,1.42,1.92.31,3.81.72,5.74,1l2.9.33,1.45.17c.49,0,1,.06,1.47.1,15.63,1.08,31.63-1.48,46.83-6.22A151.36,151.36,0,0,0,556.83,948a107.42,107.42,0,0,0,17.6-15.66,70.52,70.52,0,0,0,12.41-19.2l.94-2.63.48-1.31c.15-.45.27-1,.41-1.43l1.62-5.77c.6-1.92.94-3.89,1.39-5.83l.65-2.92a29.33,29.33,0,0,0,.57-2.94l.94-5.9.24-1.48.14-1.48.29-3c.49-4,.51-7.93.68-11.9,0-2-.09-4-.13-6l-.09-3-.29-3c-.21-2-.34-3.95-.61-5.92l-1-5.87A116.42,116.42,0,0,0,586.53,820l-1.08-2.78-1.27-2.71c-.86-1.8-1.69-3.61-2.57-5.4l-2.89-5.25c-.49-.87-.93-1.77-1.47-2.62l-1.62-2.53c-1.1-1.67-2.13-3.39-3.28-5l-3.58-4.86c-.6-.8-1.17-1.63-1.81-2.41L565,784.11l-3.86-4.67-.15-.17a3.53,3.53,0,0,1,5.3-4.65Z"/></g><g id="щуп_карту_справа2" data-name="щуп карту справа2"><path class="cls-17" d="M438.38,869.32c-1.74-6.58-3.25-13.25-4.35-20a153.88,153.88,0,0,1-2-20.44,182,182,0,0,1,.61-20.39c.53-6.72,1.29-13.35,1.89-19.92h0a3.43,3.43,0,0,1,6.85.49c-.35,6.71-.85,13.34-1.11,19.9a176.33,176.33,0,0,0,.18,19.52,146.12,146.12,0,0,0,2.62,19.21c1.29,6.35,3,12.62,4.88,18.84l0,.05a5,5,0,0,1-9.56,2.94Z"/></g><g id="щуп_2_справа" data-name="щуп 2 справа"><path class="cls-17" d="M552.61,960.8c-3.21,21.61-6.48,43.15-8.31,64.68a301.42,301.42,0,0,0-1.15,32.15c.12,5.33.53,10.6,1.11,15.83a125,125,0,0,0,2.93,15.33c2.77,9.88,7.08,19.26,13.9,26.39a52.44,52.44,0,0,0,11.5,9.17,79.28,79.28,0,0,0,14,6c5.06,1.69,10.14,3.3,15.26,4.58a139.09,139.09,0,0,0,15.45,3A130,130,0,0,0,633,1139.1c2.62.11,5.26,0,7.9,0s5.28-.25,7.92-.46c5.29-.44,10.59-1,15.89-1.85l4-.6,3.91-.66,3.92-.67c1.27-.25,2.39-.61,3.59-.9a94.12,94.12,0,0,0,14.42-5.6,94,94,0,0,1,16.28-6c11.47-2.77,22.88-3.27,34-3.12s22.34,1.16,33,2c21.53,1.6,43.13,1.91,64-1.76,5.23-.88,10.4-2.1,15.54-3.46l3.84-1.07,3.85-1.18c2.56-.79,5.11-1.6,7.55-2.48a60.87,60.87,0,0,0,7-3,24.28,24.28,0,0,0,5.65-3.72,11,11,0,0,0,3.1-4.8,20.83,20.83,0,0,0,.87-6.53l0,.63a8.18,8.18,0,0,0-1.7-4.12,10.4,10.4,0,0,0-4-2.73,28,28,0,0,0-6-1.62c-2.16-.4-4.45-.63-6.75-.84s-4.72-.34-7-.45c-1.13-.07-2.36-.09-3.58-.12l-3.64-.09c-2.42,0-4.9-.23-7.35-.35s-4.9-.37-7.35-.59c-19.6-1.85-38.81-6.39-57.38-12-18.6-5.45-36.77-12.07-55.29-14.66a91.52,91.52,0,0,0-27.55,0,89.1,89.1,0,0,0-26,8.74,4.5,4.5,0,0,1-1.83.49h-.14a27.53,27.53,0,0,1-11.77-1.87,16.5,16.5,0,0,1-5.63-4,17.12,17.12,0,0,1-3.36-5.9,29.4,29.4,0,0,1-1.09-11.53,71.12,71.12,0,0,1,1.62-10.36,187.63,187.63,0,0,1,5.67-19.27c2.16-6.26,4.42-12.44,6.73-18.58,4.6-12.28,9.33-24.44,13.69-36.71s8.39-24.62,11.77-37.11a275.06,275.06,0,0,0,7.7-37.91,160.31,160.31,0,0,0,.5-38.28,103.66,103.66,0,0,0-10.76-36.2,99.13,99.13,0,0,0-23.55-29.42,3.49,3.49,0,0,1,4.55-5.3h0a106.15,106.15,0,0,1,25.16,31.5,113.39,113.39,0,0,1,11.65,38.56,167.31,167.31,0,0,1-.27,40,281.4,281.4,0,0,1-7.66,39c-3.37,12.77-7.41,25.33-11.72,37.74s-8.84,24.72-13.27,37c-2.21,6.14-4.4,12.27-6.36,18.42a179.6,179.6,0,0,0-5,18.45,62.07,62.07,0,0,0-1.25,9,20.51,20.51,0,0,0,.86,7.86,6.4,6.4,0,0,0,3.87,4.07,18.32,18.32,0,0,0,7.5.83h0l-2,.5c2.33-1,4.62-2,7-2.92s4.73-1.8,7.18-2.45l3.65-1.07,3.71-.85,1.85-.43,1.88-.33,3.75-.63a106.41,106.41,0,0,1,30.1.49c9.87,1.43,19.37,4,28.72,6.73s18.51,5.66,27.71,8.36,18.42,5.09,27.72,7a236.89,236.89,0,0,0,28.1,4.08c2.36.18,4.71.4,7.08.48s4.7.26,7.1.25l3.59,0c1.19,0,2.37,0,3.65.08,2.53.08,4.93.2,7.44.37s5,.42,7.61.86a36.46,36.46,0,0,1,8,2.11,19.6,19.6,0,0,1,7.77,5.33,12.67,12.67,0,0,1,1.51,2.06,14.11,14.11,0,0,1,1.16,2.25,19.46,19.46,0,0,1,.8,2.33c.18.78.34,1.56.5,2.33a2.18,2.18,0,0,1,0,.44v.19a30.5,30.5,0,0,1-1.26,9.65,21,21,0,0,1-5.59,8.89,33.46,33.46,0,0,1-7.89,5.41,71.17,71.17,0,0,1-8.06,3.52c-2.69,1-5.34,1.87-8,2.71l-4,1.27-4,1.17c-5.4,1.49-10.87,2.83-16.4,3.83s-11.1,1.84-16.68,2.33c-2.78.32-5.58.45-8.37.67s-5.58.28-8.36.32c-11.14.25-22.23-.16-33.25-.92s-21.66-1.71-32.39-1.83l-8,.08c-2.63.15-5.27.25-7.88.45a97.78,97.78,0,0,0-15.2,2.49,83.5,83.5,0,0,0-14.37,5.48,105.29,105.29,0,0,1-16.1,6.27c-1.44.37-2.94.82-4.34,1.1l-4.17.74-4.16.72-4.13.61c-5.51.82-11.08,1.41-16.68,1.85-2.8.21-5.62.34-8.43.45s-5.65.14-8.49,0a142.47,142.47,0,0,1-17-1.35,150.7,150.7,0,0,1-16.69-3.34c-5.48-1.4-10.81-3.12-16.1-4.91a89.64,89.64,0,0,1-16-7,63.32,63.32,0,0,1-14-11.25A61.74,61.74,0,0,1,542.9,1108a88,88,0,0,1-6.18-16.37,137.07,137.07,0,0,1-3.14-16.85c-.6-5.63-1-11.26-1.1-16.86a302.59,302.59,0,0,1,1.36-33.33c2-22,5.52-43.69,8.89-65.28a5,5,0,0,1,9.88,1.51Z"/></g><g id="карта-3" data-name="карта"><g id="карта_верх" data-name="карта верх"><path class="cls-17" d="M224.29,736.94l-3.51,2.95c-1.18,1-2.37,2.15-3.55,3.22a87.17,87.17,0,0,0-6.64,7A80.82,80.82,0,0,0,200,766a76.51,76.51,0,0,0-6.43,17.83,80.87,80.87,0,0,0-1.95,18.8l-7-5h0c19.42-8.36,39.65-15.29,60.59-19.46A224.7,224.7,0,0,1,277,774.08a207.19,207.19,0,0,1,32.09.72l-5.5,5.07a63.78,63.78,0,0,1,2.81-19.67,74.19,74.19,0,0,1,8.29-17.81,102,102,0,0,1,11.87-15.2,151.82,151.82,0,0,1,13.9-13h0l1.83,8.69a111.31,111.31,0,0,0-29.41-5.41,150.59,150.59,0,0,0-30.33,1.6A198,198,0,0,0,252.74,726c-4.9,1.5-9.71,3.27-14.5,5.1-2.37,1-4.8,1.88-7.11,2.86Zm-2.47-4.07,7.37-3.3c2.44-1.06,4.84-2,7.26-3,4.86-1.91,9.77-3.71,14.73-5.35a231.78,231.78,0,0,1,30.4-8,178.72,178.72,0,0,1,31.47-3.19,142.18,142.18,0,0,1,31.93,3.2,4.84,4.84,0,0,1,2.29,8.25l-.46.43h0c-9.12,7.57-17.51,16-23.66,25.78A63.84,63.84,0,0,0,316,763.13a53.44,53.44,0,0,0-2.39,16.55h0a5,5,0,0,1-4.92,5.08l-.58,0A204.65,204.65,0,0,0,247.17,788c-20.08,4-39.63,10.68-58.59,18.84h0l-.87.28a4.72,4.72,0,0,1-5.93-3.07,4.79,4.79,0,0,1-.17-2.18,123.14,123.14,0,0,1,4.76-20.05,96.63,96.63,0,0,1,20.42-35q3.39-3.76,7.1-7.2c1.28-1.12,2.46-2.25,3.81-3.36Z"/></g><g id="карта_низ" data-name="карта низ"><path class="cls-17" d="M380,884.2a251.51,251.51,0,0,0-31.12,2l-3.89.48-3.87.55c-2.58.38-5.16.81-7.73,1.26-5.15.85-10.28,1.87-15.38,3-10.22,2.2-20.34,4.93-30.37,7.9a152.19,152.19,0,0,0-14.83,5.18,101.92,101.92,0,0,0-14.17,7h0a4.51,4.51,0,0,1-6.8-4.72l.19-.89c3.09-15.11,5.64-30.34,7.42-45.64.89-7.65,1.57-15.32,1.95-23a201.41,201.41,0,0,0,0-22.92v0a3.11,3.11,0,0,1,6.2-.52,211.22,211.22,0,0,1,1,23.69c-.08,7.87-.46,15.72-1,23.54-1.18,15.66-3.15,31.22-5.67,46.7l-6.61-5.61h0c2.7-.33,5.31-.89,7.92-1.44s5.19-1.17,7.75-1.85c5.13-1.3,10.19-2.81,15.25-4.35,10.1-3.1,20.3-5.88,30.56-8.49,2.57-.64,5.14-1.28,7.72-1.85s5.15-1.24,7.75-1.79,5.17-1.14,7.78-1.65l3.9-.81,3.91-.74q15.66-2.94,31.59-5a5,5,0,1,1,1.26,9.94,4.17,4.17,0,0,1-.61,0Z"/></g><g id="карта_низ-2" data-name="карта низ"><path class="cls-17" d="M343.7,713.07a43.21,43.21,0,0,1,22.37,10.64,60.12,60.12,0,0,1,13.76,19.45,116.39,116.39,0,0,1,7.34,21.76,216.06,216.06,0,0,1,4,22.24,2.42,2.42,0,0,1-4.77.79v0a214.73,214.73,0,0,0-5.25-21.36,109.75,109.75,0,0,0-8.17-20,51.81,51.81,0,0,0-12.8-16,33.39,33.39,0,0,0-17.83-7.13,5.27,5.27,0,0,1,1-10.5l.34,0Z"/></g></g><path class="cls-17" d="M383.92,265.31l83.77-46.8a7.76,7.76,0,0,1,7.57,13.56c-.2.12-.43.22-.64.32l-87.7,38.93a3.35,3.35,0,0,1-4.43-1.71A3.38,3.38,0,0,1,383.92,265.31Z"/><path class="cls-17" d="M599.53,232.61,670,283.49a3.24,3.24,0,0,1-3.52,5.43L591.19,245.5a7.68,7.68,0,0,1,7.68-13.31C599.09,232.32,599.32,232.46,599.53,232.61Z"/><path class="cls-17" d="M469.13,418.88l-14.94,32.64-4.92-7.36h0c14.84-1.31,29.75-2.4,44.77-2.63,7.51-.1,15,0,22.6.62a117.21,117.21,0,0,1,22.63,3.79,3.3,3.3,0,0,1-1.68,6.39h-.07a109.79,109.79,0,0,0-21.32-2.72c-7.26-.3-14.57-.14-21.89.24-14.65.77-29.31,2.41-44,4.26h0l-.72,0a4.8,4.8,0,0,1-4.2-7.39l19.36-30.22a2.48,2.48,0,0,1,4.35,2.37Z"/><path class="cls-17" d="M474,453.38l-8,17.43-3.91-5.39,57.29-7.65a2.82,2.82,0,0,1,.84,5.58l-57,9.5h-.06a3.69,3.69,0,0,1-3.85-5.41l9.13-16.86a3.13,3.13,0,0,1,5.59,2.79Z"/><g id="щуп_чешется-3" data-name="щуп чешется"><path class="cls-17" d="M529.16,970.78q1.46,16.19,2.15,32.45t.31,32.59c-.21,10.87-.81,21.75-1.87,32.62A325.14,325.14,0,0,1,525,1101h0l-.13.5-.66,2.61c-.26,1-.52,2-.8,2.94-.55,2-1.17,3.88-1.82,5.79-1.3,3.83-2.78,7.58-4.39,11.27a154.91,154.91,0,0,1-11.33,21.24,172.27,172.27,0,0,1-31.2,36.3,202,202,0,0,1-18.92,14.61,223.73,223.73,0,0,1-20.44,12.22l-5.32,2.66-2.67,1.32-2.7,1.22-5.42,2.43c-1.82.77-3.66,1.49-5.49,2.24a179,179,0,0,1-22.65,7.54,234,234,0,0,1-46.88,7.06,264.49,264.49,0,0,1-47.24-1.79,210.84,210.84,0,0,1-23.32-4.25,166,166,0,0,1-22.79-7.12c-1.87-.7-3.69-1.57-5.54-2.35l-2.73-1.31c-.91-.43-1.81-.88-2.7-1.38l-2.68-1.44-2.63-1.57-4.95-3a37,37,0,0,1-10.11-8.31,21,21,0,0,1-3.42-6.46,22,22,0,0,1-.83-7.21,2.85,2.85,0,0,1,0-.29v-.07a17.79,17.79,0,0,1,3.35-8.13,21.44,21.44,0,0,1,6.36-5.5,41,41,0,0,1,6.89-3.15c2.3-.84,4.52-1.52,6.93-2.2l3.71-.72c1.21-.17,2.42-.35,3.62-.49s2.42-.21,3.62-.29,2.41-.1,3.61-.12a111.18,111.18,0,0,1,14.2.86c9.33,1.13,18.36,3,27.31,4.68a213.37,213.37,0,0,0,26.67,3.71,82.34,82.34,0,0,0,26-2.13,64.6,64.6,0,0,0,12.16-4.49c2-.86,3.95-2,5.91-3s3.81-2.2,5.69-3.32a77.12,77.12,0,0,0,32.52-39.57,95.46,95.46,0,0,0,3.52-12.62,112,112,0,0,0,1.79-13.09,163.55,163.55,0,0,0-.37-26.72l-1.28-13.68-.13-1.73c0-.6-.12-1-.18-1.58l-.2-1.54-.26-1.65c-.34-2.2-.73-4.43-1.14-6.67l-5-27c-3.36-18-6.61-36.07-9.39-54.24s-5.2-36.4-6.8-54.79a5,5,0,1,1,10-.87v.07c1.38,18.09,3.57,36.17,6.14,54.21s5.59,36,8.79,54l4.85,27c.39,2.27.78,4.54,1.13,6.86l.26,1.75.23,1.86c.06.61.17,1.28.2,1.83l.11,1.69,1.21,13.66a172.18,172.18,0,0,1,.21,28.1,120.2,120.2,0,0,1-2,14.08,102.3,102.3,0,0,1-3.93,13.77,84.7,84.7,0,0,1-14.3,24.88,88.19,88.19,0,0,1-10.08,10.28c-.92.76-1.86,1.5-2.79,2.25s-1.84,1.54-2.84,2.19l-2.93,2-1.47,1-1.52.93c-2,1.22-4,2.54-6.16,3.58s-4.17,2.26-6.36,3.19a73.2,73.2,0,0,1-13.54,5,90.12,90.12,0,0,1-28.49,2.33c-18.89-1.15-36.73-6.33-54.44-8.5a103.18,103.18,0,0,0-13.18-.82l-3.25.1-3.22.26-3.18.42-3,.58c-2,.57-4.14,1.25-6.13,2a33.51,33.51,0,0,0-5.56,2.57,12.76,12.76,0,0,0-3.94,3.44,9.57,9.57,0,0,0-1.72,4.46l0-.37a12.8,12.8,0,0,0,.59,4.24,12.39,12.39,0,0,0,2.1,3.66,29.13,29.13,0,0,0,8,6l5.06,2.86,2.39,1.32,2.47,1.23c.82.41,1.65.8,2.51,1.16l2.53,1.12c1.74.66,3.43,1.41,5.2,2a174.22,174.22,0,0,0,21.62,6.18l5.55,1.13c1.86.32,3.71.67,5.58,1,3.72.61,7.47,1.16,11.22,1.61q11.28,1.33,22.65,1.68t22.72-.22a224.37,224.37,0,0,0,44.69-6.78,157.78,157.78,0,0,0,21.3-7.18c1.74-.72,3.5-1.43,5.23-2.17l5.14-2.37,2.58-1.18,2.51-1.28,5-2.57a213,213,0,0,0,19.25-11.73A191,191,0,0,0,467,1173a163.07,163.07,0,0,0,28.85-34,144.57,144.57,0,0,0,10.47-19.65c1.48-3.4,2.83-6.85,4-10.34.59-1.75,1.15-3.5,1.66-5.26.27-.88.5-1.77.75-2.66l.79-3-.13.5c4.29-20.59,6.12-41.82,6.91-63.07.38-10.63.4-21.29.19-32s-.64-21.33-1.35-32h0a5,5,0,0,1,10-.78Z"/></g><path class="cls-18" d="M195.87,897.6C225.33,878,244,867,260.17,861.74"/><path class="cls-17" d="M393.71,895.91a186.34,186.34,0,0,1-4.45,19.64c-1.88,6.41-3.95,12.73-6.28,18.93-4.59,12.44-10,24.48-15.63,36.35s-11.71,23.51-17.92,35l-4.75,8.72c-.41.72-.77,1.47-1.22,2.17l-1.33,2.13-2.67,4.22q-5.28,8.3-10.72,16.48c-14.53,21.84-29.89,43.21-47.06,63.27a345.65,345.65,0,0,1-27.38,28.79,188.61,188.61,0,0,1-32,24.48l.34-.21c-2.88,2-5.93,4.06-9.08,6s-6.45,3.74-9.8,5.41a113.2,113.2,0,0,1-21,7.73,121.2,121.2,0,0,1-22,3.49c-7.23.5-14.43.74-21.66.73s-14.4-.32-21.49-.66-14.07-.69-21-.78c-1.74,0-3.47,0-5.21,0s-3.47,0-5.21.07-3.47.1-5.2.18l-2.6.11-2.53.16c-6.76.52-13.75,1.6-20.92,2.38A191.78,191.78,0,0,1,33.11,1182c-3.65,0-7.31-.1-10.95-.36l-2.73-.19c-.95-.08-1.9-.17-2.86-.29a53.76,53.76,0,0,1-5.81-1,32.07,32.07,0,0,1-6-2.06,18.69,18.69,0,0,1-5.88-4.2,14.14,14.14,0,0,1-2.29-3.36,16.37,16.37,0,0,1-1.2-3.53l-.13-.51c-.09-.41-.2-.83-.25-1.24a11.16,11.16,0,0,1-.07-2.44,13.16,13.16,0,0,1,1.07-4.1,22.41,22.41,0,0,1,3.75-5.68,43.21,43.21,0,0,1,4.27-4.2,80.56,80.56,0,0,1,9.09-6.69,100,100,0,0,1,19.92-10,116.18,116.18,0,0,1,21.4-5.49c14.43-2.38,28.69-2.69,42.45-4.42a143.59,143.59,0,0,0,20.25-3.84,149.6,149.6,0,0,0,54.64-28.09c10.51-8.74,19.62-19.22,25.54-31.27,3-6.25,5.9-12.65,8.31-19.08a180.23,180.23,0,0,0,6.07-19.85c1.72-6.77,3.25-13.67,4.79-20.57l4.59-20.74,4.65-20.76,1.18-5.19q.57-2.53,1.1-5.09c.7-3.42,1.35-6.87,2-10.35,1.29-7,2.6-14,4.26-21a190.65,190.65,0,0,1,6.13-20.87,174.71,174.71,0,0,1,8.66-20c1.65-3.23,3.38-6.43,5.22-9.55a45.21,45.21,0,0,1,6.23-8.9,4.06,4.06,0,0,1,6.72,4.29l0,.09a70.9,70.9,0,0,1-5,9.18c-1.76,3-3.4,6-5,9.08A165.64,165.64,0,0,0,249,898.65a179.2,179.2,0,0,0-5.88,19.86c-1.62,6.76-2.92,13.64-4.23,20.6-.66,3.49-1.33,7-2.06,10.51-.37,1.76-.76,3.53-1.16,5.29l-1.18,5.17-4.7,20.7-4.64,20.74c-1.57,6.92-3.13,13.85-4.91,20.81a190.77,190.77,0,0,1-6.41,20.75c-2.59,6.83-5.55,13.34-8.71,19.84-6.65,13.43-16.62,24.74-27.86,34a157.71,157.71,0,0,1-37.2,22.7,154.55,154.55,0,0,1-20.59,7.34,153.62,153.62,0,0,1-21.45,4.2c-14.35,1.87-28.51,2.24-42,4.62a107.3,107.3,0,0,0-19.65,5.24,89.68,89.68,0,0,0-17.92,9.18,69.64,69.64,0,0,0-8,6,33.76,33.76,0,0,0-3.28,3.27,12.83,12.83,0,0,0-2.09,3.15,3,3,0,0,0-.28,1,1.16,1.16,0,0,0,0,.21s0,0,0,.06l.19.77a6.41,6.41,0,0,0,.5,1.49,4.08,4.08,0,0,0,.71,1c1.2,1.34,3.9,2.53,6.84,3.19a39.37,39.37,0,0,0,4.66.78c.8.1,1.61.16,2.43.23l2.57.14c3.42.21,6.85.25,10.28.24a181.56,181.56,0,0,0,20.6-1.54c6.9-.85,13.91-2,21.27-2.71l2.77-.22,2.7-.16c1.81-.1,3.61-.2,5.41-.25s3.61-.14,5.42-.16,3.61-.06,5.41,0c7.21,0,14.38.25,21.45.5s14,.44,21,.42,13.9-.29,20.8-.8a118.87,118.87,0,0,0,19.94-3.18,101.9,101.9,0,0,0,18.81-6.83c3-1.48,5.93-3.08,8.81-4.83s5.69-3.66,8.66-5.68c.11-.08.23-.15.35-.22a178.91,178.91,0,0,0,30.21-22.7,336,336,0,0,0,26.77-27.62,627.82,627.82,0,0,0,46.81-61.81q5.4-8.09,10.65-16.28l2.57-4,1.27-2c.43-.67.78-1.4,1.18-2.09l4.62-8.45c6.19-11.41,12.18-22.91,17.8-34.56s10.9-23.43,15.35-35.46c2.25-6,4.22-12.09,6-18.2a181.91,181.91,0,0,0,4.16-18.5v-.06a5,5,0,1,1,9.86,1.63Z"/><path class="cls-17" d="M495.4,277.16c-1.49,7.44-2.77,14.93-3.89,22.47s-2,15.11-2.94,22.7-1.65,15.21-2.33,22.84-1.35,15.28-2,22.93h0v0a3.62,3.62,0,0,1-3.87,3.35h-.12a175,175,0,0,0-22.13-.71c-7.44.18-14.91.65-22.37,1.28-14.93,1.28-29.86,3.12-44.79,5.11h0a4.91,4.91,0,0,1-5.58-5.13l0-.28c.22-3.73.41-7.47.75-11.21l.49-5.6.65-5.61c.92-7.47,2-15,3.67-22.41a144.91,144.91,0,0,1,6.61-22.18,81.06,81.06,0,0,1,11.79-20.88,57.75,57.75,0,0,1,19.17-15.52l1.38-.7c.47-.22.94-.42,1.41-.62.94-.4,1.87-.83,2.82-1.2,1.9-.68,3.8-1.42,5.74-1.94a95.8,95.8,0,0,1,11.57-2.61,172.7,172.7,0,0,1,22.91-2l5.77-.11a16.71,16.71,0,0,1,4.37.67,16.09,16.09,0,0,1,4,1.77,16.46,16.46,0,0,1,3.41,2.83,15.6,15.6,0,0,1,2.48,3.79A14.87,14.87,0,0,1,495.4,277.16Zm-11.34-2.08a3.28,3.28,0,0,0-.29-1.92,3.61,3.61,0,0,0-1.46-1.5,4,4,0,0,0-1.09-.43,5.5,5.5,0,0,0-1.1-.16l-5.34.22a181.82,181.82,0,0,0-21.29,2.16,83.64,83.64,0,0,0-10.05,2.39c-1.64.46-3.19,1.09-4.77,1.64-.77.31-1.53.66-2.29,1-.38.17-.76.32-1.14.5l-1.09.56a43.29,43.29,0,0,0-8.19,5.29,46.48,46.48,0,0,0-6.89,6.92,68.56,68.56,0,0,0-10,17.62,149.31,149.31,0,0,0-6.34,20.27l-1.21,5.26-1.08,5.31c-.39,1.77-.69,3.56-1,5.35s-.66,3.57-.93,5.37c-1.19,7.18-2.14,14.45-3.13,21.72l-5.57-5.41h0c15.07-1.52,30.18-2.9,45.38-3.71,7.6-.39,15.23-.64,22.89-.58a183.52,183.52,0,0,1,23.09,1.5l-4,3.36h0c0-7.72.21-15.44.43-23.17s.68-15.46,1.19-23.19,1.24-15.47,2.11-23.2S482.78,282.78,484.06,275.08Z"/><path class="cls-17" d="M568.77,279.65c-.16,7.81-.55,15.6-1.11,23.35s-1.25,15.5-2.17,23.19-1.92,15.38-3,23-2.4,15.27-3.7,22.88h0L555,367.53a182.45,182.45,0,0,1,23,2.82c7.55,1.36,15,3,22.41,4.81,14.81,3.62,29.4,7.78,43.93,12.06h0L637.24,392c1-14.61,1.8-29.22,1.13-43.57A139,139,0,0,0,636,327.31a70.61,70.61,0,0,0-6.52-19.18A45.36,45.36,0,0,0,624,300a43.55,43.55,0,0,0-7.05-6.71l-1-.76c-.33-.24-.68-.47-1-.7-.69-.46-1.36-.94-2.06-1.39-1.45-.84-2.86-1.74-4.39-2.49a92.29,92.29,0,0,0-9.42-4.22,170.35,170.35,0,0,0-20.51-6.11l-5.2-1.21a5.65,5.65,0,0,0-1.12,0,4.05,4.05,0,0,0-1.15.23,4.52,4.52,0,0,0-1,.5,3.33,3.33,0,0,0-.71.69A3.21,3.21,0,0,0,568.77,279.65Zm-11.59-.06a14.85,14.85,0,0,1,5.87-11.84,16,16,0,0,1,3.88-2.15,15.64,15.64,0,0,1,4.25-1,16.53,16.53,0,0,1,4.42.15l5.64,1.19a184,184,0,0,1,22.15,6.18,88.09,88.09,0,0,1,10.9,4.71c1.8.88,3.53,2,5.27,3,.86.55,1.7,1.14,2.55,1.7.43.29.85.57,1.27.87l1.22.95a57.69,57.69,0,0,1,16,18.81,79.15,79.15,0,0,1,7.75,22.71,152.59,152.59,0,0,1,2.42,23,308.91,308.91,0,0,1-2.5,45.15l0,.21a5.46,5.46,0,0,1-7.14,4.52h0c-14.29-4.74-28.61-9.34-43-13.38-7.21-2-14.44-3.87-21.7-5.44a173.55,173.55,0,0,0-21.81-3.42h0a4.07,4.07,0,0,1-3.72-4.4,1,1,0,0,1,0-.17h0q1.33-11.44,2.47-22.88c.79-7.62,1.5-15.24,2.07-22.86s1.09-15.23,1.41-22.84S557.24,287.17,557.18,279.59Z"/></g></svg>